<svg version="1.2" baseProfile="tiny-ps" xmlns="http://www.w3.org/2000/svg" viewBox="0 0 285 285" width="285" height="285">
	<title>download-svg</title>
	<style>
		tspan { white-space:pre }
		.s0 { fill: #ffffff } 
	</style>
	<path id="Layer" class="s0" d="m282.1 76.6c0.88 0.84 1.58 1.85 2.05 2.97c0.48 1.12 0.72 2.32 0.72 3.53c0 1.21-0.25 2.42-0.72 3.53c-0.48 1.12-1.18 2.13-2.05 2.97l-133 133c-0.84 0.89-1.86 1.6-2.98 2.09c-1.13 0.49-2.34 0.74-3.57 0.74c-1.23 0-2.44-0.25-3.57-0.74c-1.13-0.49-2.14-1.2-2.98-2.09l-133-133c-0.89-0.84-1.6-1.86-2.09-2.98c-0.49-1.13-0.74-2.34-0.74-3.57c0-1.23 0.25-2.44 0.74-3.57c0.49-1.13 1.2-2.14 2.09-2.98l14.1-14.3c0.84-0.91 1.86-1.63 3-2.13c1.14-0.5 2.36-0.75 3.6-0.75c1.24 0 2.47 0.26 3.6 0.75c1.14 0.5 2.16 1.22 3 2.13l112.2 112.2l112.2-112.2c0.84-0.89 1.86-1.6 2.98-2.09c1.13-0.49 2.34-0.74 3.57-0.74c1.23 0 2.44 0.25 3.57 0.74c1.13 0.49 2.14 1.2 2.98 2.09l14.2 14.3l0.1 0.1z" />
</svg>